<svg width="157" height="24" viewBox="0 0 157 24" fill="none" xmlns="http://www.w3.org/2000/svg">
<path d="M38.7614 19V4.45455H43.6761C44.8125 4.45455 45.7453 4.64867 46.4744 5.03693C47.2036 5.42045 47.7434 5.94839 48.0938 6.62074C48.4441 7.29309 48.6193 8.05777 48.6193 8.91477C48.6193 9.77178 48.4441 10.5317 48.0938 11.1946C47.7434 11.8575 47.206 12.3783 46.4815 12.7571C45.7571 13.1312 44.8314 13.3182 43.7045 13.3182H39.7273V11.7273H43.6477C44.4242 11.7273 45.0492 11.6136 45.5227 11.3864C46.0009 11.1591 46.3466 10.8371 46.5597 10.4205C46.7775 9.99905 46.8864 9.49716 46.8864 8.91477C46.8864 8.33239 46.7775 7.82339 46.5597 7.38778C46.3419 6.95218 45.9938 6.616 45.5156 6.37926C45.0374 6.13778 44.4053 6.01705 43.6193 6.01705H40.5227V19H38.7614ZM45.608 12.4659L49.1875 19H47.142L43.6193 12.4659H45.608ZM55.7837 19.2273C54.7326 19.2273 53.8259 18.9953 53.0636 18.5312C52.306 18.0625 51.7212 17.4091 51.3093 16.571C50.9021 15.7282 50.6985 14.7481 50.6985 13.6307C50.6985 12.5133 50.9021 11.5284 51.3093 10.6761C51.7212 9.81913 52.2942 9.15152 53.0281 8.6733C53.7667 8.19034 54.6284 7.94886 55.6133 7.94886C56.1815 7.94886 56.7425 8.04356 57.2965 8.23295C57.8505 8.42235 58.3548 8.73011 58.8093 9.15625C59.2638 9.57765 59.6261 10.1364 59.896 10.8324C60.1658 11.5284 60.3008 12.3854 60.3008 13.4034V14.1136H51.8917V12.6648H58.5962C58.5962 12.0492 58.4731 11.5 58.2269 11.017C57.9854 10.5341 57.6398 10.1529 57.19 9.87358C56.7449 9.59422 56.2193 9.45455 55.6133 9.45455C54.9457 9.45455 54.368 9.62026 53.8803 9.9517C53.3974 10.2784 53.0257 10.7045 52.7653 11.2301C52.5049 11.7557 52.3746 12.3191 52.3746 12.9205V13.8864C52.3746 14.7102 52.5167 15.4086 52.8008 15.9815C53.0896 16.5497 53.4897 16.983 54.0011 17.2812C54.5124 17.5748 55.1067 17.7216 55.7837 17.7216C56.2241 17.7216 56.6218 17.66 56.9769 17.5369C57.3368 17.4091 57.6469 17.2197 57.9073 16.9688C58.1677 16.7131 58.369 16.3958 58.511 16.017L60.1303 16.4716C59.9599 17.0208 59.6734 17.5038 59.271 17.9205C58.8685 18.3324 58.3713 18.6544 57.7795 18.8864C57.1876 19.1136 56.5224 19.2273 55.7837 19.2273ZM67.2539 23.3182C66.4442 23.3182 65.7482 23.214 65.1658 23.0057C64.5835 22.8021 64.0981 22.5322 63.7099 22.196C63.3263 21.8646 63.021 21.5095 62.7937 21.1307L64.1289 20.1932C64.2804 20.392 64.4722 20.6193 64.7042 20.875C64.9362 21.1354 65.2534 21.3603 65.6559 21.5497C66.0631 21.7438 66.5958 21.8409 67.2539 21.8409C68.1346 21.8409 68.8614 21.6278 69.4343 21.2017C70.0072 20.7756 70.2937 20.108 70.2937 19.1989V16.983H70.1516C70.0285 17.1818 69.8533 17.428 69.6261 17.7216C69.4035 18.0104 69.0816 18.2685 68.6602 18.4957C68.2435 18.7183 67.68 18.8295 66.9698 18.8295C66.0891 18.8295 65.2984 18.6212 64.5977 18.2045C63.9016 17.7879 63.35 17.1818 62.9428 16.3864C62.5404 15.5909 62.3391 14.625 62.3391 13.4886C62.3391 12.3712 62.5356 11.3982 62.9286 10.5696C63.3216 9.73627 63.8685 9.09233 64.5692 8.63778C65.27 8.1785 66.0797 7.94886 66.9982 7.94886C67.7085 7.94886 68.2719 8.06723 68.6886 8.30398C69.11 8.53598 69.4319 8.80114 69.6545 9.09943C69.8817 9.39299 70.0569 9.63447 70.18 9.82386H70.3505V8.09091H71.9698V19.3125C71.9698 20.25 71.7567 21.0123 71.3306 21.5994C70.9092 22.1913 70.341 22.6245 69.6261 22.8991C68.9158 23.1785 68.1251 23.3182 67.2539 23.3182ZM67.1971 17.3239C67.8694 17.3239 68.4376 17.17 68.9016 16.8622C69.3656 16.5545 69.7184 16.1117 69.9599 15.5341C70.2013 14.9564 70.3221 14.2652 70.3221 13.4602C70.3221 12.6742 70.2037 11.9806 69.967 11.3793C69.7302 10.7779 69.3799 10.3068 68.9158 9.96591C68.4518 9.625 67.8789 9.45455 67.1971 9.45455C66.4869 9.45455 65.895 9.63447 65.4215 9.99432C64.9528 10.3542 64.6 10.8371 64.3633 11.4432C64.1313 12.0492 64.0153 12.7216 64.0153 13.4602C64.0153 14.2178 64.1336 14.8878 64.3704 15.4702C64.6119 16.0478 64.967 16.5024 65.4357 16.8338C65.9092 17.1605 66.4963 17.3239 67.1971 17.3239ZM75.038 19V8.09091H76.7141V19H75.038ZM75.8903 6.27273C75.5636 6.27273 75.2818 6.16146 75.0451 5.93892C74.8131 5.71638 74.6971 5.44886 74.6971 5.13636C74.6971 4.82386 74.8131 4.55634 75.0451 4.33381C75.2818 4.11127 75.5636 4 75.8903 4C76.217 4 76.4963 4.11127 76.7283 4.33381C76.9651 4.55634 77.0835 4.82386 77.0835 5.13636C77.0835 5.44886 76.9651 5.71638 76.7283 5.93892C76.4963 6.16146 76.217 6.27273 75.8903 6.27273ZM87.5114 10.5341L86.0057 10.9602C85.911 10.7093 85.7713 10.4654 85.5866 10.2287C85.4067 9.98722 85.1605 9.78835 84.848 9.6321C84.5355 9.47585 84.1354 9.39773 83.6477 9.39773C82.9801 9.39773 82.4238 9.55161 81.9787 9.85938C81.5384 10.1624 81.3182 10.5483 81.3182 11.017C81.3182 11.4337 81.4697 11.7628 81.7727 12.0043C82.0758 12.2457 82.5492 12.447 83.1932 12.608L84.8125 13.0057C85.7879 13.2424 86.5147 13.6046 86.9929 14.0923C87.4711 14.5753 87.7102 15.1979 87.7102 15.9602C87.7102 16.5852 87.5303 17.1439 87.1705 17.6364C86.8153 18.1288 86.3182 18.517 85.679 18.8011C85.0398 19.0852 84.2964 19.2273 83.4489 19.2273C82.3362 19.2273 81.4152 18.9858 80.6861 18.5028C79.9569 18.0199 79.4953 17.3144 79.3011 16.3864L80.892 15.9886C81.0436 16.5758 81.33 17.0161 81.7514 17.3097C82.1776 17.6032 82.7339 17.75 83.4205 17.75C84.2017 17.75 84.822 17.5843 85.2812 17.2528C85.7453 16.9167 85.9773 16.5142 85.9773 16.0455C85.9773 15.6667 85.8447 15.3494 85.5795 15.0938C85.3144 14.8333 84.9072 14.6392 84.358 14.5114L82.5398 14.0852C81.5407 13.8485 80.8068 13.4815 80.3381 12.9844C79.8741 12.4825 79.642 11.8551 79.642 11.1023C79.642 10.4867 79.8149 9.94223 80.1605 9.46875C80.5109 8.99527 80.9867 8.62358 81.5881 8.35369C82.1941 8.08381 82.8807 7.94886 83.6477 7.94886C84.7273 7.94886 85.5748 8.18561 86.1903 8.65909C86.8106 9.13258 87.2509 9.75758 87.5114 10.5341ZM94.9776 8.09091V9.51136H89.3242V8.09091H94.9776ZM90.9719 5.47727H92.6481V15.875C92.6481 16.3485 92.7167 16.7036 92.854 16.9403C92.9961 17.1723 93.176 17.3286 93.3938 17.4091C93.6164 17.4848 93.8507 17.5227 94.0969 17.5227C94.2816 17.5227 94.4331 17.5133 94.5515 17.4943C94.6699 17.4706 94.7646 17.4517 94.8356 17.4375L95.1765 18.9432C95.0629 18.9858 94.9042 19.0284 94.7006 19.071C94.497 19.1184 94.239 19.142 93.9265 19.142C93.453 19.142 92.989 19.0402 92.5344 18.8366C92.0846 18.633 91.7106 18.3229 91.4123 17.9062C91.1187 17.4896 90.9719 16.964 90.9719 16.3295V5.47727ZM101.956 19.2273C100.904 19.2273 99.9978 18.9953 99.2354 18.5312C98.4779 18.0625 97.8931 17.4091 97.4812 16.571C97.074 15.7282 96.8704 14.7481 96.8704 13.6307C96.8704 12.5133 97.074 11.5284 97.4812 10.6761C97.8931 9.81913 98.466 9.15152 99.1999 8.6733C99.9386 8.19034 100.8 7.94886 101.785 7.94886C102.353 7.94886 102.914 8.04356 103.468 8.23295C104.022 8.42235 104.527 8.73011 104.981 9.15625C105.436 9.57765 105.798 10.1364 106.068 10.8324C106.338 11.5284 106.473 12.3854 106.473 13.4034V14.1136H98.0636V12.6648H104.768C104.768 12.0492 104.645 11.5 104.399 11.017C104.157 10.5341 103.812 10.1529 103.362 9.87358C102.917 9.59422 102.391 9.45455 101.785 9.45455C101.118 9.45455 100.54 9.62026 100.052 9.9517C99.5692 10.2784 99.1976 10.7045 98.9371 11.2301C98.6767 11.7557 98.5465 12.3191 98.5465 12.9205V13.8864C98.5465 14.7102 98.6886 15.4086 98.9727 15.9815C99.2615 16.5497 99.6616 16.983 100.173 17.2812C100.684 17.5748 101.279 17.7216 101.956 17.7216C102.396 17.7216 102.794 17.66 103.149 17.5369C103.509 17.4091 103.819 17.2197 104.079 16.9688C104.34 16.7131 104.541 16.3958 104.683 16.017L106.302 16.4716C106.132 17.0208 105.845 17.5038 105.443 17.9205C105.04 18.3324 104.543 18.6544 103.951 18.8864C103.359 19.1136 102.694 19.2273 101.956 19.2273ZM109.022 19V8.09091H110.642V9.73864H110.755C110.954 9.19886 111.314 8.76089 111.835 8.42472C112.356 8.08854 112.943 7.92045 113.596 7.92045C113.719 7.92045 113.873 7.92282 114.058 7.92756C114.243 7.93229 114.382 7.93939 114.477 7.94886V9.65341C114.42 9.6392 114.29 9.6179 114.086 9.58949C113.887 9.55634 113.677 9.53977 113.454 9.53977C112.924 9.53977 112.45 9.65104 112.034 9.87358C111.622 10.0914 111.295 10.3944 111.054 10.7827C110.817 11.1662 110.699 11.6042 110.699 12.0966V19H109.022ZM118.026 15.0227L117.998 12.9489H118.339L123.112 8.09091H125.185L120.1 13.233H119.958L118.026 15.0227ZM116.464 19V4.45455H118.14V19H116.464ZM123.396 19L119.134 13.6023L120.327 12.4375L125.526 19H123.396ZM130.553 19.2557C129.862 19.2557 129.234 19.1255 128.671 18.8651C128.107 18.5999 127.66 18.2188 127.328 17.7216C126.997 17.2197 126.831 16.6136 126.831 15.9034C126.831 15.2784 126.954 14.7718 127.201 14.3835C127.447 13.9905 127.776 13.6828 128.188 13.4602C128.6 13.2377 129.054 13.072 129.551 12.9631C130.053 12.8494 130.558 12.7595 131.064 12.6932C131.727 12.608 132.265 12.544 132.676 12.5014C133.093 12.4541 133.396 12.3759 133.586 12.267C133.78 12.1581 133.877 11.9687 133.877 11.6989V11.642C133.877 10.9413 133.685 10.3968 133.301 10.0085C132.923 9.62027 132.347 9.42614 131.576 9.42614C130.775 9.42614 130.148 9.60133 129.694 9.9517C129.239 10.3021 128.919 10.6761 128.735 11.0739L127.144 10.5057C127.428 9.8428 127.807 9.3267 128.28 8.95739C128.758 8.58333 129.279 8.32292 129.843 8.17614C130.411 8.02462 130.97 7.94886 131.519 7.94886C131.869 7.94886 132.272 7.99148 132.726 8.0767C133.185 8.1572 133.628 8.32528 134.054 8.58097C134.485 8.83665 134.843 9.22254 135.127 9.73864C135.411 10.2547 135.553 10.946 135.553 11.8125V19H133.877V17.5227H133.792C133.678 17.7595 133.489 18.0128 133.223 18.2827C132.958 18.5526 132.605 18.7822 132.165 18.9716C131.725 19.161 131.187 19.2557 130.553 19.2557ZM130.809 17.75C131.471 17.75 132.03 17.6198 132.485 17.3594C132.944 17.099 133.29 16.7628 133.522 16.3509C133.758 15.9389 133.877 15.5057 133.877 15.0511V13.517C133.806 13.6023 133.65 13.6804 133.408 13.7514C133.171 13.8177 132.897 13.8769 132.584 13.929C132.276 13.9763 131.976 14.0189 131.682 14.0568C131.393 14.09 131.159 14.1184 130.979 14.142C130.543 14.1989 130.136 14.2912 129.757 14.419C129.383 14.5421 129.08 14.7292 128.848 14.9801C128.621 15.2263 128.507 15.5625 128.507 15.9886C128.507 16.571 128.723 17.0114 129.154 17.3097C129.589 17.6032 130.141 17.75 130.809 17.75ZM138.612 19V8.09091H140.232V9.73864H140.345C140.544 9.19886 140.904 8.76089 141.425 8.42472C141.946 8.08854 142.533 7.92045 143.186 7.92045C143.309 7.92045 143.463 7.92282 143.648 7.92756C143.832 7.93229 143.972 7.93939 144.067 7.94886V9.65341C144.01 9.6392 143.88 9.6179 143.676 9.58949C143.477 9.55634 143.267 9.53977 143.044 9.53977C142.514 9.53977 142.04 9.65104 141.624 9.87358C141.212 10.0914 140.885 10.3944 140.643 10.7827C140.407 11.1662 140.288 11.6042 140.288 12.0966V19H138.612ZM150.153 19.2273C149.169 19.2273 148.304 18.9929 147.561 18.5241C146.822 18.0554 146.245 17.3996 145.828 16.5568C145.416 15.714 145.21 14.7292 145.21 13.6023C145.21 12.4659 145.416 11.474 145.828 10.6264C146.245 9.77888 146.822 9.12074 147.561 8.65199C148.304 8.18324 149.169 7.94886 150.153 7.94886C151.138 7.94886 152 8.18324 152.739 8.65199C153.482 9.12074 154.06 9.77888 154.472 10.6264C154.888 11.474 155.097 12.4659 155.097 13.6023C155.097 14.7292 154.888 15.714 154.472 16.5568C154.06 17.3996 153.482 18.0554 152.739 18.5241C152 18.9929 151.138 19.2273 150.153 19.2273ZM150.153 17.7216C150.902 17.7216 151.517 17.5298 152 17.1463C152.483 16.7628 152.84 16.2585 153.072 15.6335C153.304 15.0085 153.42 14.3314 153.42 13.6023C153.42 12.8731 153.304 12.1937 153.072 11.5639C152.84 10.9342 152.483 10.4252 152 10.0369C151.517 9.64867 150.902 9.45455 150.153 9.45455C149.405 9.45455 148.79 9.64867 148.307 10.0369C147.824 10.4252 147.466 10.9342 147.234 11.5639C147.002 12.1937 146.886 12.8731 146.886 13.6023C146.886 14.3314 147.002 15.0085 147.234 15.6335C147.466 16.2585 147.824 16.7628 148.307 17.1463C148.79 17.5298 149.405 17.7216 150.153 17.7216Z" fill="white"/>
<path d="M8.5 15H15.5M8.5 18H12M19 2H5C4.73478 2 4.48043 2.10536 4.29289 2.29289C4.10536 2.48043 4 2.73478 4 3V21C4 21.2652 4.10536 21.5196 4.29289 21.7071C4.48043 21.8946 4.73478 22 5 22H19C19.2652 22 19.5196 21.8946 19.7071 21.7071C19.8946 21.5196 20 21.2652 20 21V3C20 2.73478 19.8946 2.48043 19.7071 2.29289C19.5196 2.10536 19.2652 2 19 2Z" stroke="#9747FF" stroke-width="2" stroke-linecap="round" stroke-linejoin="round"/>
<path d="M15 6.5L11 10.5L9 8.5" stroke="#9747FF" stroke-width="2" stroke-linecap="round" stroke-linejoin="round"/>
</svg>
